<svg width="92" height="18" viewBox="0 0 92 18" fill="none" xmlns="http://www.w3.org/2000/svg">
<path d="M12.803 0.237305C12.0902 0.237305 11.4961 0.771957 11.4961 1.48483C11.4961 2.2274 12.0604 2.76206 12.803 2.76206C13.5159 2.76206 14.11 2.2274 14.11 1.48483C14.11 0.771957 13.5159 0.237305 12.803 0.237305Z" fill="#111111"/>
<path d="M27.8314 5.16797C24.3561 5.16797 21.5938 7.66302 21.5938 11.5541C21.5938 15.1779 24.3561 17.9402 28.2175 17.9402C31.0987 17.9402 33.1779 15.4749 33.1779 15.4749C33.1779 15.4749 31.6334 13.9898 31.6037 14.0195C31.2175 14.5244 29.6135 15.7422 28.2472 15.7422C26.0789 15.7422 24.1482 14.7323 23.9997 12.1185H33.9502C33.9502 12.1185 34.0096 11.168 34.0096 10.8412C33.9799 7.72243 31.2472 5.16797 27.8314 5.16797ZM24.0888 10.366C24.4452 8.34619 26.0195 7.36599 27.8017 7.36599C29.3165 7.36599 31.5145 8.34619 31.6037 10.366H24.0888Z" fill="#111111"/>
<path d="M15.9805 4.78186V17.6729H18.3567V7.51453H21.5052V5.46502H18.3567V4.98978C18.3567 2.67295 20.0201 2.43532 20.9706 2.43532C21.327 2.43532 21.5052 2.43532 21.5052 2.43532V0.237305C21.5052 0.237305 21.2082 0.237305 20.6735 0.237305C19.0993 0.237305 15.9805 0.68285 15.9805 4.78186Z" fill="#111111"/>
<path d="M40.157 2.22772C42.058 2.25743 43.2758 3.47525 43.8996 4.03961L43.9293 4.06931L45.652 2.61386C45.652 2.61386 43.959 0.148515 40.454 0C40.3649 0 40.1273 0 40.1273 0C39.5332 0 39.0283 0.0594077 38.553 0.17822C38.5233 0.17822 38.3748 0.207922 38.3451 0.237625C36.0877 0.861387 34.6619 2.55445 34.6619 4.66336C34.6619 10.0693 43.0382 9.50495 43.0382 13.1584C43.0382 14.7624 41.6718 15.7426 40.0679 15.7426C38.1075 15.7426 36.5926 14.5248 35.9986 13.9604L34.2461 15.4158C34.2461 15.4158 36.3253 18 40.0085 18C43.454 18 45.4441 15.7129 45.4441 13.0396C45.4441 7.33663 37.0679 8.10891 37.0679 4.60396C37.0976 3.26733 38.3451 2.25743 40.157 2.22772Z" fill="#111111"/>
<path d="M13.9895 5.43555H11.6133V17.6732H13.9895V5.43555Z" fill="#111111"/>
<path d="M2.46534 14.9404V0.296875H0V15.8612V16.1286C0 17.2276 0.475244 17.7028 1.57425 17.7028H10.4257V15.5048H3.0297C2.67326 15.4751 2.46534 15.2672 2.46534 14.9404Z" fill="#111111"/>
<path d="M88.2161 1.78223H85.8398V13.2773C85.8398 17.2872 89.0181 17.7921 90.5923 17.7921C91.0973 17.7921 91.3646 17.7921 91.3646 17.7921V15.5347C91.3646 15.5347 91.2161 15.5347 90.8893 15.5347C89.9686 15.5347 88.2458 15.208 88.2458 12.7129V7.5149H91.3646V5.46539H88.2458L88.2161 1.78223Z" fill="#111111"/>
<path d="M70.7221 5.16797C67.1874 5.16797 64.3359 7.84124 64.3359 11.5541C64.3359 15.267 67.1874 17.9699 70.7221 17.9699C72.2963 17.9699 73.7518 17.4353 74.8508 16.5145V17.6729H77.1379V11.5541L77.1082 11.1977C76.9597 7.69273 74.1676 5.16797 70.7221 5.16797ZM70.7221 15.6234C68.4944 15.6234 66.6528 13.9006 66.6528 11.5244C66.6528 9.14816 68.4944 7.48481 70.7221 7.48481C72.9795 7.48481 74.8211 9.17787 74.8211 11.5244C74.8211 13.9303 72.9795 15.6234 70.7221 15.6234Z" fill="#111111"/>
<path d="M79.0977 9.98034V17.6734H81.4739V10.0992C81.4739 7.78232 83.1373 7.4853 84.0878 7.4853C84.4442 7.4853 84.6224 7.4853 84.6224 7.4853V5.34668C84.6224 5.34668 84.3254 5.34668 83.7907 5.34668C82.2165 5.34668 79.0977 5.88133 79.0977 9.98034Z" fill="#111111"/>
<path d="M58.4835 5.22754C57.0874 5.22754 55.8102 5.8513 54.9488 6.8315C54.0875 5.8513 52.8102 5.22754 51.4142 5.22754C48.8003 5.22754 46.6914 7.33645 46.6914 9.95031V17.6731H49.0676V9.95031C49.0676 8.67308 50.1072 7.60378 51.4142 7.60378C52.6914 7.60378 53.7607 8.64338 53.7607 9.95031V17.6731H56.137V9.95031C56.137 8.67308 57.1766 7.60378 58.4835 7.60378C59.7607 7.60378 60.83 8.64338 60.83 9.95031V17.6731H63.2063V9.95031C63.2063 7.33645 61.0973 5.22754 58.4835 5.22754Z" fill="#111111"/>
</svg>
